<svg xmlns="http://www.w3.org/2000/svg" viewBox="0 0 256 320" role="img" aria-labelledby="title">
  <title id="title">Flarion brand mark</title>
  <g fill="#000">
    <path d="M128 8 156 42 162 72 146 88 124 94 112 100 112 70 102 54 118 36Z"/>
    <path d="M92 56 112 34 112 98 96 126 86 172 128 312 100 212 62 166 48 120 62 80 76 118 92 70Z"/>
    <path d="M104 94 118 102 118 228 103 204 128 312 153 204 136 184 136 160 144 156 146 116 130 100 118 100Z"/>
    <path d="M148 84 182 60 198 98 180 122 146 132 146 114 170 92 160 72Z"/>
    <path d="M144 160 178 126 193 168 156 210 128 312 136 184 136 160Z"/>
  </g>
</svg>
