<?xml version="1.0" encoding="UTF-8"?>
<svg id="uuid-4bd0bc18-ec3e-4edd-a09c-44cea2564edb" data-name="Layer 2" xmlns="http://www.w3.org/2000/svg" viewBox="0 0 1831.927 986.446">
  <defs>
    <style>
      .uuid-2d55de82-24dc-4fcc-81e0-d2503f951871 {
        fill: #fff;
      }
    </style>
  </defs>
  <path class="uuid-2d55de82-24dc-4fcc-81e0-d2503f951871" d="M0,986.446V0h1831.927v986.446H0ZM1079.42,577.653l36.502-42.295-18.053-109.288-22.158,16.619-40.416,31.04-6.543,16.819-24.649,67.892-84.336-.446,71.631-16.525,24.364-66.664-37.079,30.935-39.487,33.757-22.902,18.939-.126,165.805-42.24-42.75-32.972-33.081.068-255.872,36.837-25.735,51.053-34.858,50.911-34.995,27.661-18.708-23.505-77.408c-.697-2.294-5.362-5.167-7.177-6.955l-47.089-46.399-26.858-25.46-.257,103.892c-.008,3.324-1.516,8.197-2.699,11.288l-21.334,55.773-34.976,89.77,23.329-130.428-38.998,36.396-49.197,46.836-15.839,14.855,15.889,76.01,25.067,122.961-24.935-64.045-30.817-80.333-19.751,81.428-11.441,48.528,14.532,16.798,47.64,55.143,36.897,42.719,16.489,18.464,46.293,108.561,37.429,87.461,12.873-28.364,49.928-116.7c24.485-57.23,12.14-39.091,50.804-83.881l49.638-57.503ZM932.512,487.231l26.075-29.57,75.914-.19,42.988-47.827,13.362-14.405-11.717-31.75-38.369-107.48-12.287,32.643-28.818,84.005c-7.459,5.902-14.947,10.631-22.847,15.981l-60.495,40.971.161,74.602,16.034-16.979Z"/>
  <path d="M1079.42,577.653l-49.638,57.503c-38.665,44.79-26.319,26.651-50.804,83.881l-49.928,116.7-12.873,28.364-37.429-87.461-46.293-108.561-16.489-18.464-36.897-42.719-47.64-55.143-14.532-16.798,11.441-48.528,19.751-81.428,30.817,80.333,24.935,64.045-25.067-122.961-15.889-76.01,15.839-14.855,49.197-46.836,38.998-36.396-23.329,130.428,34.976-89.77,21.334-55.773c1.183-3.091,2.69-7.965,2.699-11.288l.257-103.892,26.858,25.46,47.089,46.399c1.815,1.788,6.48,4.661,7.177,6.955l23.505,77.408-27.661,18.708-50.911,34.995-51.053,34.858-36.837,25.735-.068,255.872,32.972,33.081,42.24,42.75.126-165.805,22.902-18.939,39.487-33.757,37.079-30.935-24.364,66.664-71.631,16.525,84.336.446,24.649-67.892,6.543-16.819,40.416-31.04,22.158-16.619,18.053,109.288-36.502,42.295Z"/>
  <path d="M932.512,487.231l-16.034,16.979-.161-74.602,60.495-40.971c7.9-5.35,15.388-10.079,22.847-15.981l28.818-84.005,12.287-32.643,38.369,107.48,11.717,31.75-13.362,14.405-42.988,47.827-75.914.19-26.075,29.57Z"/>
</svg>